PathFileType	4	(X/Y/Z)	s01c0103.trc
DataRate	CameraRate	NumFrames	NumMarkers	Units	OrigDataRate	OrigDataStartFrame	OrigNumFrames
200	200	4	48	mm	200	1750	2000
Frame#	Time	racr			lacr			c7			jug			rlel			rdr			llel			ldr			s2			lic			ric			lasi			rasi			rpsi			lpsi			rgt			lgt			rth1			rth2			rth3			rth4			rlfc			rsh1			rsh2			rsh3			rsh4			rlmal			rmmal			rcal			rtoe			rmt5			lth1			lth2			lth4			lth3			llfc			lsh1			lsh2			lsh3			lsh4			llmal			lmmal			lcal			ltoe			lmt5			SBIKE			LBIKE			RBIKE			
		X1	Y1	Z1	X2	Y2	Z2	X3	Y3	Z3	X4	Y4	Z4	X5	Y5	Z5	X6	Y6	Z6	X7	Y7	Z7	X8	Y8	Z8	X9	Y9	Z9	X10	Y10	Z10	X11	Y11	Z11	X12	Y12	Z12	X13	Y13	Z13	X14	Y14	Z14	X15	Y15	Z15	X16	Y16	Z16	X17	Y17	Z17	X18	Y18	Z18	X19	Y19	Z19	X20	Y20	Z20	X21	Y21	Z21	X22	Y22	Z22	X23	Y23	Z23	X24	Y24	Z24	X25	Y25	Z25	X26	Y26	Z26	X27	Y27	Z27	X28	Y28	Z28	X29	Y29	Z29	X30	Y30	Z30	X31	Y31	Z31	X32	Y32	Z32	X33	Y33	Z33	X34	Y34	Z34	X35	Y35	Z35	X36	Y36	Z36	X37	Y37	Z37	X38	Y38	Z38	X39	Y39	Z39	X40	Y40	Z40	X41	Y41	Z41	X42	Y42	Z42	X43	Y43	Z43	X44	Y44	Z44	X45	Y45	Z45	X46	Y46	Z46	X47	Y47	Z47	X48	Y48	Z48	
1750	8.7500	514.203308	1324.792725	-114.967125	534.847412	1284.660889	-429.512817	482.718506	1386.311035	-270.896271	468.778473	1222.160400	-266.722198	577.164124	1064.652344	0.423953	731.635071	859.555298	-57.876179	536.186157	1017.393860	-550.275452	713.650574	872.086487	-436.915771	0.000000	0.000000	-0.000000	112.931709	1172.833130	-435.910889	110.047203	1177.828857	-107.297943	115.864479	1119.315430	-410.984924	138.654510	1136.157227	-136.682724	-22.987951	1201.322021	-209.912277	-27.299934	1201.158691	-316.229401	74.934761	1072.826904	-68.541550	56.275665	1023.138855	-448.590851	192.012115	1011.972229	-62.928585	273.926910	992.861511	-64.418869	357.971344	961.589600	-81.323769	288.088440	1041.837280	-89.289528	429.249390	880.112122	-110.473274	343.771484	801.748718	-77.221085	285.895172	739.963074	-81.370697	219.124268	681.631775	-89.843475	319.246155	706.992859	-119.091896	122.733879	609.723999	-105.922539	164.371811	589.854797	-183.628311	76.794266	617.823364	-161.802658	235.980713	397.708740	-136.882843	146.366180	462.263550	-73.108200	110.753204	904.789551	-448.789825	174.388672	842.782654	-444.661469	213.298340	881.070801	-442.568695	228.931107	779.457336	-423.489563	296.132233	676.441040	-408.352417	248.664154	576.422363	-442.785156	241.069427	490.204773	-437.177002	230.833298	405.660126	-424.699677	296.093140	487.681061	-409.360291	216.142914	277.027893	-410.732605	268.537933	315.228180	-334.709442	171.148361	246.695694	-370.174133	448.549164	220.608871	-374.554901	344.551849	195.675064	-441.104584	-224.691818	892.918823	-254.904694	-13.142899	84.465164	-457.886292	-22.853003	80.789078	-57.800861	
1751	8.7550	513.160095	1326.137207	-114.130547	535.643616	1285.876465	-428.148163	482.480896	1387.158447	-269.778534	468.466278	1223.298828	-265.932404	577.160339	1066.326172	-1.312194	731.555115	859.853271	-58.338497	538.064453	1019.352112	-549.637451	714.318787	871.801880	-436.910187	0.000000	0.000000	-0.000000	113.707443	1171.797485	-437.165802	109.498878	1178.487671	-108.226952	117.046120	1118.843994	-411.730774	138.712158	1136.857666	-137.478806	-23.022528	1200.893921	-212.137909	-26.826303	1200.448486	-318.383148	74.666862	1073.906372	-69.464592	56.396111	1021.814819	-449.633148	191.774979	1014.407043	-63.619095	273.958252	996.818420	-64.986725	358.672424	967.440918	-81.243698	287.338013	1046.362427	-89.175629	432.430359	888.729065	-110.027863	347.410431	810.684937	-76.981033	289.757202	748.816223	-81.580818	223.354523	690.060608	-90.216621	323.654877	715.492554	-118.607277	127.506081	616.721558	-106.893257	169.823105	597.375732	-184.101654	81.283638	623.609741	-162.645615	245.518356	407.576447	-136.098114	153.987747	469.964233	-73.193626	108.423508	903.238770	-450.154053	170.658478	839.760925	-446.104675	210.410446	877.032227	-443.588348	223.533417	775.149841	-424.970612	289.080811	670.692017	-409.533173	240.809265	571.113525	-444.032867	233.003265	484.936615	-438.115051	222.590256	400.407684	-425.431335	288.231110	482.291779	-410.735046	208.296921	271.397339	-410.859528	262.563293	311.429504	-335.037292	163.769897	241.712662	-370.382660	440.635864	213.061447	-374.713104	336.416595	188.876465	-441.277191	-224.758530	892.920044	-255.011078	-13.163130	84.416641	-457.926910	-22.877708	80.792046	-57.816483	
1752	8.7600	512.090759	1327.595215	-113.545326	536.372253	1287.101318	-426.782349	482.189880	1387.989380	-268.657166	468.301819	1223.955200	-265.192261	576.800903	1068.036255	-3.082660	731.440491	860.228088	-58.730469	539.800537	1021.174255	-548.972473	714.924622	871.528687	-436.862488	0.000000	0.000000	-0.000000	114.244774	1170.534912	-438.081696	109.197937	1179.184937	-108.974617	118.073219	1118.262817	-412.510010	138.603333	1137.479858	-138.332886	-23.133062	1200.558350	-214.266312	-26.469816	1199.879517	-320.416260	74.401093	1074.915894	-70.399529	56.513023	1020.889526	-450.634125	191.313980	1016.886780	-64.335388	273.855347	1000.712402	-65.552757	358.901672	972.947449	-81.638603	286.581238	1050.698486	-89.019531	435.361511	897.093384	-109.633736	350.765442	819.500732	-76.767883	293.608856	757.187012	-81.646858	227.574509	698.006287	-90.581436	328.141632	723.703857	-117.780067	132.539185	622.896179	-107.933899	175.583954	604.209045	-184.501709	85.975639	628.709534	-163.495239	254.703049	415.902802	-136.565521	161.411011	476.791992	-73.512840	106.117584	901.993286	-451.552277	166.940125	837.137085	-447.688690	207.606857	873.546387	-445.048889	218.326752	771.304504	-426.519501	281.952515	665.972351	-410.998596	232.697250	566.416687	-445.813080	224.870026	480.309906	-439.192749	214.389847	395.814423	-426.123474	280.329865	477.571228	-412.287567	200.324387	266.520630	-410.996124	256.298523	308.095673	-335.338928	156.151749	237.408310	-370.610077	432.495453	205.868393	-374.885925	328.010193	182.638992	-441.389679	-224.824860	892.946716	-255.118271	-13.203320	84.395699	-457.952911	-22.908010	80.808823	-57.828606	
1753	8.7650	511.027527	1328.932495	-113.127563	537.021179	1288.320557	-425.421387	481.843018	1388.786255	-267.542969	467.871033	1225.141602	-264.623718	576.233704	1069.514771	-4.587466	731.439575	860.832397	-59.397465	541.442566	1022.938416	-548.346191	715.870789	871.508118	-436.873810	0.000000	0.000000	-0.000000	114.877960	1169.176758	-438.520081	108.706718	1179.824951	-109.755577	118.950111	1117.580200	-413.333191	138.502121	1138.163452	-138.923080	-23.346210	1200.421631	-216.251923	-26.241463	1199.479980	-322.302582	74.114479	1076.008179	-71.206314	56.590668	1020.220337	-451.666351	190.910919	1019.551697	-65.037514	273.655609	1004.530151	-66.278999	359.075287	978.457764	-81.486511	285.810730	1055.117920	-88.790306	437.868896	905.378784	-109.054565	353.998108	828.082642	-76.740395	297.383484	765.272400	-81.690338	231.749969	705.630493	-90.650749	332.762360	731.619690	-116.728966	137.919449	628.366760	-108.940987	181.634018	610.335327	-184.848618	91.014885	633.041443	-164.303543	264.052368	423.950928	-136.388489	169.594528	483.027069	-73.633499	103.777596	901.082275	-453.039368	163.261688	834.985962	-449.378235	204.521317	870.348511	-446.764893	213.260223	767.949585	-428.307007	275.070709	661.815369	-412.611877	225.078613	562.187134	-447.290039	216.885498	476.218994	-440.317352	206.221191	391.827545	-426.917786	272.632599	473.399750	-413.950287	192.360031	262.534393	-411.306732	249.767487	305.223358	-335.614319	148.352936	233.689484	-370.850830	424.057526	199.240494	-375.043427	319.351776	177.047195	-441.580231	-224.904510	892.950195	-255.230118	-13.214867	84.376137	-457.976898	-22.914448	80.806435	-57.851582	
